<svg width="36" height="36" viewBox="0 0 36 36" fill="none" xmlns="http://www.w3.org/2000/svg">
<rect width="36" height="36" rx="4" fill="#EFF2FC"/>
<path d="M15.0785 22.994L15.0845 21.878L18.8465 18.506C19.1505 18.238 19.3565 17.982 19.4645 17.738C19.5765 17.494 19.6325 17.25 19.6325 17.006C19.6325 16.698 19.5645 16.422 19.4285 16.178C19.2925 15.93 19.1045 15.734 18.8645 15.59C18.6245 15.446 18.3485 15.374 18.0365 15.374C17.7165 15.374 17.4305 15.45 17.1785 15.602C16.9305 15.75 16.7365 15.948 16.5965 16.196C16.4565 16.444 16.3885 16.712 16.3925 17H15.1085C15.1085 16.44 15.2345 15.95 15.4865 15.53C15.7425 15.106 16.0925 14.776 16.5365 14.54C16.9805 14.3 17.4885 14.18 18.0605 14.18C18.6045 14.18 19.0925 14.304 19.5245 14.552C19.9565 14.796 20.2965 15.132 20.5445 15.56C20.7965 15.988 20.9225 16.476 20.9225 17.024C20.9225 17.42 20.8705 17.756 20.7665 18.032C20.6625 18.308 20.5065 18.564 20.2985 18.8C20.0905 19.036 19.8305 19.292 19.5185 19.568L16.6145 22.16L16.4765 21.8H20.9225V22.994H15.0785Z" fill="#33354D"/>
</svg>
